<?xml version="1.0" encoding="UTF-8"?>
<svg viewBox="0 0 481.73596 252.44128" xmlns="http://www.w3.org/2000/svg" xmlns:xlink="http://www.w3.org/1999/xlink">
 <defs>
  <linearGradient id="e" x1="481.5" x2="500.21" y1="404.25" y2="342.47" gradientUnits="userSpaceOnUse">
   <stop stop-color="#333" offset="0"/>
   <stop stop-opacity="0" offset="1"/>
  </linearGradient>
  <linearGradient id="a">
   <stop offset="0"/>
   <stop stop-opacity="0" offset="1"/>
  </linearGradient>
  <linearGradient id="f" x1="521.25" x2="635.81" y1="602.74" y2="624.12" gradientUnits="userSpaceOnUse" xlink:href="#a"/>
  <linearGradient id="g" x1="404.7" x2="295.65" y1="551.22" y2="508.45" gradientUnits="userSpaceOnUse" xlink:href="#a"/>
  <radialGradient id="b" cx="477.49" cy="544.3" r="206.09" gradientUnits="userSpaceOnUse">
   <stop stop-color="#6a6a6a" offset="0"/>
   <stop offset="1"/>
  </radialGradient>
  <radialGradient id="c" cx="478.61" cy="550.29" r="225.06" gradientUnits="userSpaceOnUse">
   <stop stop-color="#fff" offset="0"/>
   <stop stop-color="#fff" offset=".4702"/>
   <stop stop-color="#d6d6d6" offset="1"/>
  </radialGradient>
  <radialGradient id="d" cx="253.14" cy="470.03" r="114.36" gradientTransform="matrix(1 0 0 .19711 0 377.38)" gradientUnits="userSpaceOnUse">
   <stop stop-color="#333" offset="0"/>
   <stop stop-color="#333" stop-opacity="0" offset="1"/>
  </radialGradient>
 </defs>
 <path d="m471.73 244.31c-1.7387-1.0698-4.451-2.9211-6.0272-4.1141-1.511-1.1436-9.4319-8.5402-2.8196-0.76544 0.24788 0.29145 1.0547 1.2213 2.9243 3.5628 2.9751 3.726 3.0427 3.9506 1.3369 4.4374-0.75396 0.21518-5.0598-2.5163-9.5684-6.07s-8.8251-6.2821-9.5923-6.0632c-0.77655 0.22163-1.2886 1.7128-1.1552 3.3642 0.27554 3.4104-1.5254 7.2542-3.5741 7.8388-1.6632 0.47469-2.0065 0.56436-1.3863-2.2984 0.25702-1.1861-0.067-8.1625-0.72004-15.503-1.0911-12.265-1.4847-14.06-4.8556-22.149-2.0176-4.8413-7.2379-14.962-11.601-22.49l-7.9324-13.688-10.844-6.0615c-9.2918-5.1939-11.298-5.9318-14.019-5.1552-3.5965 1.0265-22.057-1.8373-28.501-4.4215l-4.1896-1.6799-16.817 7.3643c-27.511 12.047-65.268 26.84-67.148 26.309-0.4814-0.13612-2.7842 1.5077-5.1173 3.653-3.4641 3.1852-5.0919 4.0278-8.8764 4.5948-2.5489 0.3819-12.051 2.4597-21.116 4.6174s-17.095 3.742-17.844 3.5209-6.5504 1.0392-12.892 2.8009c-8.3884 2.3302-11.92 2.9361-12.962 2.2235-0.78736-0.53874-1.2965-1.4573-1.1314-2.0412 0.46058-1.6289-12.571 1.0219-15.389 3.1304-4.9352 3.6924-11.499 4.6447-32.83 4.7629-6.848 0.0379-7.7585 0.79608-9.8531 8.2037-1.2208 4.3177-4.1413 5.759-5.5058 2.7173-1.0867-2.4224-3.9484-2.5519-11.56-0.5228-8.0054 2.1341-15.127 2.3547-18.128 0.56141-4.0208-2.4025-5.6298-6.334-4.111-10.045 2.083-5.0891 7.9222-8.2775 26.608-14.529 15.368-5.1413 17.277-5.5893 21.279-4.9933 5.9188 0.88143 7.5273 0.28154 13.657-5.0937 2.8876-2.5321 6.1117-4.8503 7.1647-5.1515s4.0232-2.1381 6.6005-4.0818 8.1396-4.9228 12.361-6.6201l7.6746-3.086 4.0174-7.6311c2.2096-4.1971 4.6105-10.757 5.3355-14.577l1.3181-6.9462-4.6827-2.1346c-2.5755-1.174-7.6914-3.2804-11.369-4.6808-6.1216-2.3314-6.7152-2.8099-7.0339-5.6713-0.32216-2.8928-1.5755-3.8434-16.862-12.789-9.083-5.3152-18.166-10.93-20.184-12.477-2.705-2.074-6.3658-3.2605-13.93-4.5146-5.6435-0.93568-12.643-2.5588-15.555-3.607-8.3608-3.01-32.552-13.721-36.693-16.247-9.7408-5.9403-16.955-6.4996-21.155-1.64-2.655 3.0718-12.274 4.5944-13.707 2.1697-0.56369-0.95375-1.8335-1.4398-2.9381-1.1245-1.5276 0.43599-2.068-0.02121-2.5165-2.1291-0.47619-2.2379-1.2971-2.8144-4.936-3.4666-2.6392-0.47301-6.3523-0.21732-9.3922 0.64675-4.3892 1.2475-5.0204 1.1923-4.9726-0.43551 0.0428-1.4594-0.47929-1.7121-2.4034-1.163-1.8198 0.51937-2.5999 0.20431-3.0045-1.2133-0.35179-1.2326-1.1848-1.7326-2.338-1.4035-2.5862 0.73812-6.243-7.7102-5.0269-11.614 1.1917-3.8249 5.005-4.6312 17.112-3.6186 5.5422 0.46357 12.691 1.0226 15.885 1.2424 5.4857 0.37729 12.469 1.3793 16.194 2.3237 4.5033 1.1416 21.647 3.2497 25.627 3.1511 4.7442-0.11749 8.316 0.48413 10.439 1.7583 0.70089 0.42063 3.6485 0.9209 6.5503 1.1117s12.446 1.7974 21.209 3.5703c14.29 2.8909 16.903 3.7864 25.335 8.684 5.1711 3.0034 9.8203 5.3412 10.332 5.1953s4.388 1.3161 8.6147 3.249 8.8398 3.4795 10.251 3.4368 5.946 0.33628 10.077 0.84207 9.436 1.1372 11.79 1.403 8.8851 1.9277 14.514 3.6929c6.4631 2.0268 12.268 3.1151 15.754 2.9534 3.7736-0.17509 6.9083 0.48001 9.9096 2.0709 2.5703 1.3624 6.77 2.3955 10.132 2.4923 9.817 0.28262 10.41 0.44306 14.84 4.0167 2.3741 1.9152 6.6266 4.1762 9.4499 5.0245 4.4663 1.342 6.4189 1.269 15.027-0.56147l9.8936-2.1038 12.897-9.644c12.044-9.0059 15.039-12.069 10.549-10.787-2.5597 0.73056-7.0836-0.0411-8.0896-1.3799-1.1078-1.4742-0.63515-7.742 0.72441-9.6073 0.84369-1.1575 0.74985-1.7241-0.41791-2.5231-0.82825-0.5667-0.24223-4.1874-0.26994-5.4342s-2.0788-0.63763-2.9858-1.2582c-1.3992-0.95733-1.149-2.044 1.6512-7.1719 1.8151-3.324 2.9403-6.2437 2.5005-6.4882-1.1239-0.6248 0.051-5.6656 2.1237-9.1116 1.5056-2.5031 1.5048-3.2187-5e-3 -5.2517-2.0322-2.7355-2.4823-7.8375-0.71526-8.1067 3.0466-0.46408 5.6168-1.6375 6.58-3.3702 0.74651-1.3428-0.14819-2.1906 1.2552-1.8935 0.54916 0.11629 0.50449 0.92168 2.3899 1.19 1.8367 0.26137 5.1899-0.79044 6.701-0.91128 3.0622-0.24487 8.1289-0.04149 11.259 0.45198 3.7301 0.58798 4.2548-0.6393 4.0618-1.4012 0.52287-0.74547 0.59076 0.41919 2.1473 1.4555s6.1754 2.6881 8.1572 3.1796c4.5472 1.1276 8.4597 5.4301 8.8217 9.7012 0.14811 1.7475 0.86111 6.6087 1.5844 10.803 1.4364 8.3285 1.0885 9.9898-4.7935 22.89l-3.3794 7.4117 2.1969 5.2019c2.3845 5.6462 8.2176 12.526 16.486 19.445 2.8901 2.4183 5.3546 4.7435 5.4766 5.167s3.0012 3.1651 6.3981 6.0925 6.3891 6.0683 6.6493 6.9799 5.1011 5.8932 10.758 11.07c9.9546 9.1106 20.727 19.644 28.097 27.474 5.8486 6.2132 8.8312 12.531 15.876 33.627 7.4338 22.263 6.6103 20.888 19.358 32.316 5.356 4.8015 8.3322 10.918 7.5567 11.159-0.50859 0.15857-0.5037-0.19905-0.41078 0.2684 0.0713 0.35878 0.87152 1.9105 0.94172 2.2433 0.24186 1.1466 1.0143 3.1017-0.40092 3.5278-0.55751 0.16743-2.436-0.5702-4.1748-1.64z"/>
 <g enable-background="new">
  <g transform="matrix(.13499 -.03853 .03853 .13499 -46.954 -25.45)">
   <path transform="matrix(1.767 0 0 3.2895 -6.8919 -770.63)" d="m366 470.03c0 11.621-50.53 21.042-112.86 21.042s-112.86-9.4208-112.86-21.042 50.53-21.042 112.86-21.042 112.86 9.4208 112.86 21.042z" fill="url(#d)" fill-rule="evenodd"/>
   <path d="m687.14 591.56c0 124.25-100.84 225.08-225.08 225.08s-225.08-100.84-225.08-225.08 100.84-225.08 225.08-225.08 225.08 100.84 225.08 225.08z" fill="url(#b)" fill-rule="evenodd"/>
   <path d="m462.05 366.48c-49.128 0-94.576 15.785-131.59 42.531-16.116 19.49-27.406 39-27.406 39l-20.562 7.875c-28.559 37.736-45.5 84.748-45.5 135.69 0 4.7582 0.14614 9.4712 0.4375 14.156 5.1158 9.1397 8.9375 14.969 8.9375 14.969l-2.625 25.688c14.701 58.68 52.455 108.24 103.06 138.5 3.6158 2.3383 6.6361 3.7538 9.9542 5.6308-1.7605-1.6631-2.3028-2.108-3.4542-3.162-13.247-13.702-24.406-29.719-24.406-29.719l32.031-29.469c1e-5 1e-5 20.594 15.565 43.719 23.625s48.781 8.625 48.781 8.625l15.875 40.75s-14.028 7.1945-33.938 10.719c-3.5652 0.6311-7.333 1.1444-11.094 1.5625 12.288 2.0813 24.903 3.1875 37.781 3.1875 52.043 0 99.99-17.684 138.12-47.375 11.93-15.985 19.75-29.719 19.75-29.719l17.375-6.8125c30.833-38.223 49.436-86.719 49.812-139.53-6.1241-18.158-12.812-28.812-12.812-28.812s1.7072-16.582-0.69064-34.848c-0.37624-2.866 1.5495-1.846 3.8673-3.4022-0.68742-2.5948-3.185-10.306-4.445-13.988-4.9603-14.496-9.8394-21.412-13.044-27.824 6.2433 3.4876-0.0245-0.0189-0.0312-0.0312-38.13-70.163-112.49-117.81-197.91-117.81zm27.219 8.5625c18.704 0.25577 38.219 6.3125 38.219 6.3125s22.173 8.5206 38 20.562 25.312 27.594 25.312 27.594l-40.25 27.812c1e-5 -3e-5 -21.666-14.842-44.312-22.844s-46.281-9.1562-46.281-9.1562l-11.406-41.531c-1e-5 0 17.263-8.1102 37-8.7188 1.2335-0.038 2.4718-0.0483 3.7188-0.0312zm-131.53 111.19c13.82 0.0635 25.312 1.7188 25.312 1.7188l20.812 88.438-66.812 63.625s-20.863-13.237-35.906-26.188-24.281-25.625-24.281-25.625 2.7158-25.654 8.8438-47.719 15.688-40.531 15.688-40.531 16.519-9.5067 36.938-12.5c6.3809-0.93542 13.124-1.2476 19.406-1.2188zm216.53 63.156c-1e-5 0 18.838 8.2533 34.031 20.406s26.75 28.219 26.75 28.219-1.0777 22.001-8.3438 44.875-20.719 46.625-20.719 46.625-18.778 6.8908-38.594 8.75-40.688-1.3125-40.688-1.3125l-10.344-43.281-10.656-44.5s14.142-17.052 31.281-32 37.281-27.781 37.281-27.781z" fill="url(#c)" fill-rule="evenodd"/>
   <path d="m633.37 598.68s-1.0585 21.443-8.1364 43.726-20.175 45.403-20.175 45.403-18.296 6.7243-37.6 8.5354-39.613-1.291-39.613-1.291l-10.088-42.15-10.371-43.333s13.772-16.632 30.468-31.193 36.315-27.05 36.315-27.05 18.347 8.052 33.147 19.89 26.053 27.463 26.053 27.463z" fill="none" stroke="url(#f)" stroke-linejoin="round" stroke-width="4.8705"/>
   <path d="m337.13 638.06s-20.337-12.906-35.001-25.53-23.655-24.968-23.655-24.968 2.6368-24.996 8.6103-46.505 15.284-39.53 15.284-39.53 16.098-9.255 36.003-12.173 43.615 0.50133 43.615 0.50133l20.279 86.211-65.135 61.995z" fill="none" stroke="url(#g)" stroke-linejoin="round" stroke-width="4.874"/>
   <path d="m526.54 385.59s19.464 7.4963 33.366 18.073 22.24 24.235 22.24 24.235l-35.357 24.431s-19.031-13.054-38.923-20.082-47.713-9.7975-47.713-9.7975l-9.3194-36.843s19.395-6.7689 36.731-7.3034 38.976 7.2868 38.976 7.2868z" fill="none" stroke="url(#e)" stroke-width="5.0158"/>
   <path d="m382.01 489.15s36.187-48.081 78.437-64.331" fill="none" stroke="#666"/>
   <path d="m552.78 456.1s26.985 42.926 23.485 91.926" fill="none" stroke="#ececec" stroke-width="3"/>
   <path d="m550.37 456.61s27.576 44.376 24.076 93.376" fill="none" stroke="#666"/>
   <path d="m587.8 429.25s59.783 23.6 86.033 98.35" fill="none" stroke="#666"/>
   <path d="m635.42 597.89s21.044-1.6348 39.429-32.747" fill="none" stroke="#666"/>
   <path d="m620.39 739.32s2.9208-18.129-14.521-50.953" fill="none" stroke="#666"/>
   <path d="m453.67 760.93s32.35-8.5737 73.362-65.142" fill="none" stroke="#666"/>
   <path d="m336.82 639.22s-1.9445 50.381 23.158 89.979" fill="none" stroke="#666"/>
   <path d="m328.88 757.9s-7.4296 0.0924-35.545-16.858" fill="none" stroke="#666"/>
   <path d="m277.33 588.13s-20.149 8.4635-31.001 31.911" fill="none" stroke="#666"/>
   <path d="m302.7 448.25s-7.2316 27.912-0.94794 51.363" fill="none" stroke="#666"/>
   <path d="m326.92 412.6s60.054-50.895 121.22-28.268" fill="none" stroke="#666"/>
   <path d="m469.15 801.22s52.386 13.451 133.19-34.233" fill="none" stroke="#666"/>
   <path d="m382.2 485.55s30.091-41.442 74.341-61.316" fill="none" stroke="#f2f2f2" stroke-linecap="square" stroke-width="3"/>
   <path d="m454.49 762.67s30.822-5.9461 71.835-62.515" fill="none" stroke="#fff" stroke-width="3"/>
   <path d="m334.79 640.34s-1.9445 50.396 23.158 89.994" fill="none" stroke="#fff" stroke-width="3"/>
   <path d="m404.35 576.56s26.34 6.1872 101.29 32.704" fill="none" stroke="#999"/>
   <path d="m404.35 575.28s26.34 6.1872 101.29 32.704" fill="none" stroke="#ececec"/>
  </g>
 </g>
</svg>
